<mxfile host="app.diagrams.net" agent="Mozilla/5.0 (Windows NT 10.0; Win64; x64) AppleWebKit/537.36 (KHTML, like Gecko) Chrome/139.0.0.0 Safari/537.36" version="28.1.0">
  <diagram name="Page-1" id="ftw60l1Vjhc1bZ2Axn0g">
    <mxGraphModel dx="1426" dy="791" grid="1" gridSize="10" guides="1" tooltips="1" connect="1" arrows="1" fold="1" page="1" pageScale="1" pageWidth="1169" pageHeight="827" math="0" shadow="0">
      <root>
        <mxCell id="0" />
        <mxCell id="1" parent="0" />
        <mxCell id="YExqCfBzZgoQN-jnLlza-1" value="" style="ellipse;whiteSpace=wrap;html=1;" parent="1" vertex="1">
          <mxGeometry x="390" y="452.5" width="90" height="50" as="geometry" />
        </mxCell>
        <mxCell id="YExqCfBzZgoQN-jnLlza-2" value="&lt;u&gt;USER_ID&lt;/u&gt;" style="text;html=1;align=center;verticalAlign=middle;whiteSpace=wrap;rounded=0;" parent="1" vertex="1">
          <mxGeometry x="405" y="462.5" width="60" height="30" as="geometry" />
        </mxCell>
        <mxCell id="YExqCfBzZgoQN-jnLlza-3" value="" style="rounded=0;whiteSpace=wrap;html=1;" parent="1" vertex="1">
          <mxGeometry x="545" y="552.5" width="120" height="60" as="geometry" />
        </mxCell>
        <mxCell id="YExqCfBzZgoQN-jnLlza-4" value="USER" style="text;html=1;align=center;verticalAlign=middle;whiteSpace=wrap;rounded=0;" parent="1" vertex="1">
          <mxGeometry x="575" y="567.5" width="60" height="30" as="geometry" />
        </mxCell>
        <mxCell id="YExqCfBzZgoQN-jnLlza-5" value="" style="ellipse;whiteSpace=wrap;html=1;" parent="1" vertex="1">
          <mxGeometry x="390" y="662.5" width="90" height="50" as="geometry" />
        </mxCell>
        <mxCell id="YExqCfBzZgoQN-jnLlza-6" value="PASWWORD" style="text;html=1;align=center;verticalAlign=middle;whiteSpace=wrap;rounded=0;" parent="1" vertex="1">
          <mxGeometry x="405" y="672.5" width="60" height="30" as="geometry" />
        </mxCell>
        <mxCell id="YExqCfBzZgoQN-jnLlza-7" value="" style="ellipse;whiteSpace=wrap;html=1;" parent="1" vertex="1">
          <mxGeometry x="560" y="452.5" width="90" height="50" as="geometry" />
        </mxCell>
        <mxCell id="YExqCfBzZgoQN-jnLlza-8" value="EMAIL" style="text;html=1;align=center;verticalAlign=middle;whiteSpace=wrap;rounded=0;" parent="1" vertex="1">
          <mxGeometry x="575" y="462.5" width="60" height="30" as="geometry" />
        </mxCell>
        <mxCell id="YExqCfBzZgoQN-jnLlza-9" value="" style="ellipse;whiteSpace=wrap;html=1;" parent="1" vertex="1">
          <mxGeometry x="390" y="557.5" width="90" height="50" as="geometry" />
        </mxCell>
        <mxCell id="YExqCfBzZgoQN-jnLlza-10" value="NAME" style="text;html=1;align=center;verticalAlign=middle;whiteSpace=wrap;rounded=0;" parent="1" vertex="1">
          <mxGeometry x="405" y="567.5" width="60" height="30" as="geometry" />
        </mxCell>
        <mxCell id="YExqCfBzZgoQN-jnLlza-11" value="" style="ellipse;whiteSpace=wrap;html=1;" parent="1" vertex="1">
          <mxGeometry x="560" y="672.5" width="90" height="50" as="geometry" />
        </mxCell>
        <mxCell id="YExqCfBzZgoQN-jnLlza-12" value="PHONE NUMBER" style="text;html=1;align=center;verticalAlign=middle;whiteSpace=wrap;rounded=0;" parent="1" vertex="1">
          <mxGeometry x="575" y="682.5" width="60" height="30" as="geometry" />
        </mxCell>
        <mxCell id="YExqCfBzZgoQN-jnLlza-13" value="" style="endArrow=none;html=1;rounded=0;entryX=1;entryY=1;entryDx=0;entryDy=0;exitX=0;exitY=0;exitDx=0;exitDy=0;" parent="1" source="YExqCfBzZgoQN-jnLlza-3" target="YExqCfBzZgoQN-jnLlza-1" edge="1">
          <mxGeometry width="50" height="50" relative="1" as="geometry">
            <mxPoint x="780" y="722.5" as="sourcePoint" />
            <mxPoint x="830" y="672.5" as="targetPoint" />
          </mxGeometry>
        </mxCell>
        <mxCell id="YExqCfBzZgoQN-jnLlza-14" value="" style="endArrow=none;html=1;rounded=0;entryX=0.5;entryY=1;entryDx=0;entryDy=0;" parent="1" target="YExqCfBzZgoQN-jnLlza-7" edge="1">
          <mxGeometry width="50" height="50" relative="1" as="geometry">
            <mxPoint x="605" y="552.5" as="sourcePoint" />
            <mxPoint x="530" y="502.5" as="targetPoint" />
            <Array as="points" />
          </mxGeometry>
        </mxCell>
        <mxCell id="YExqCfBzZgoQN-jnLlza-15" value="" style="endArrow=none;html=1;rounded=0;entryX=1;entryY=0.5;entryDx=0;entryDy=0;exitX=0;exitY=0.5;exitDx=0;exitDy=0;" parent="1" source="YExqCfBzZgoQN-jnLlza-3" target="YExqCfBzZgoQN-jnLlza-9" edge="1">
          <mxGeometry width="50" height="50" relative="1" as="geometry">
            <mxPoint x="868" y="709.5" as="sourcePoint" />
            <mxPoint x="790" y="652.5" as="targetPoint" />
          </mxGeometry>
        </mxCell>
        <mxCell id="YExqCfBzZgoQN-jnLlza-16" value="" style="endArrow=none;html=1;rounded=0;entryX=1;entryY=0;entryDx=0;entryDy=0;exitX=0;exitY=1;exitDx=0;exitDy=0;" parent="1" source="YExqCfBzZgoQN-jnLlza-3" target="YExqCfBzZgoQN-jnLlza-5" edge="1">
          <mxGeometry width="50" height="50" relative="1" as="geometry">
            <mxPoint x="808" y="849.5" as="sourcePoint" />
            <mxPoint x="730" y="792.5" as="targetPoint" />
          </mxGeometry>
        </mxCell>
        <mxCell id="YExqCfBzZgoQN-jnLlza-17" value="" style="endArrow=none;html=1;rounded=0;entryX=0.5;entryY=0;entryDx=0;entryDy=0;exitX=0.5;exitY=1;exitDx=0;exitDy=0;" parent="1" source="YExqCfBzZgoQN-jnLlza-3" target="YExqCfBzZgoQN-jnLlza-11" edge="1">
          <mxGeometry width="50" height="50" relative="1" as="geometry">
            <mxPoint x="778" y="829.5" as="sourcePoint" />
            <mxPoint x="700" y="772.5" as="targetPoint" />
          </mxGeometry>
        </mxCell>
        <mxCell id="YExqCfBzZgoQN-jnLlza-18" value="" style="rounded=0;whiteSpace=wrap;html=1;" parent="1" vertex="1">
          <mxGeometry x="1030" y="552.5" width="120" height="60" as="geometry" />
        </mxCell>
        <mxCell id="YExqCfBzZgoQN-jnLlza-19" value="CARMODEL" style="text;html=1;align=center;verticalAlign=middle;whiteSpace=wrap;rounded=0;" parent="1" vertex="1">
          <mxGeometry x="1060" y="567.5" width="60" height="30" as="geometry" />
        </mxCell>
        <mxCell id="YExqCfBzZgoQN-jnLlza-20" value="" style="ellipse;whiteSpace=wrap;html=1;" parent="1" vertex="1">
          <mxGeometry x="1180" y="432.5" width="90" height="50" as="geometry" />
        </mxCell>
        <mxCell id="YExqCfBzZgoQN-jnLlza-21" value="&lt;u&gt;MODEL_ID&lt;/u&gt;" style="text;html=1;align=center;verticalAlign=middle;whiteSpace=wrap;rounded=0;" parent="1" vertex="1">
          <mxGeometry x="1195" y="442.5" width="60" height="30" as="geometry" />
        </mxCell>
        <mxCell id="YExqCfBzZgoQN-jnLlza-22" value="" style="ellipse;whiteSpace=wrap;html=1;" parent="1" vertex="1">
          <mxGeometry x="1195" y="502.5" width="90" height="50" as="geometry" />
        </mxCell>
        <mxCell id="YExqCfBzZgoQN-jnLlza-23" value="BRAND_NAME" style="text;html=1;align=center;verticalAlign=middle;whiteSpace=wrap;rounded=0;" parent="1" vertex="1">
          <mxGeometry x="1210" y="512.5" width="60" height="30" as="geometry" />
        </mxCell>
        <mxCell id="YExqCfBzZgoQN-jnLlza-24" value="" style="ellipse;whiteSpace=wrap;html=1;" parent="1" vertex="1">
          <mxGeometry x="1185" y="622.5" width="90" height="50" as="geometry" />
        </mxCell>
        <mxCell id="YExqCfBzZgoQN-jnLlza-25" value="MODEL_NAME" style="text;html=1;align=center;verticalAlign=middle;whiteSpace=wrap;rounded=0;" parent="1" vertex="1">
          <mxGeometry x="1200" y="632.5" width="60" height="30" as="geometry" />
        </mxCell>
        <mxCell id="YExqCfBzZgoQN-jnLlza-26" value="" style="ellipse;whiteSpace=wrap;html=1;" parent="1" vertex="1">
          <mxGeometry x="1180" y="692.5" width="90" height="50" as="geometry" />
        </mxCell>
        <mxCell id="YExqCfBzZgoQN-jnLlza-27" value="PROD_YEAR" style="text;html=1;align=center;verticalAlign=middle;whiteSpace=wrap;rounded=0;" parent="1" vertex="1">
          <mxGeometry x="1195" y="702.5" width="60" height="30" as="geometry" />
        </mxCell>
        <mxCell id="YExqCfBzZgoQN-jnLlza-28" value="" style="ellipse;whiteSpace=wrap;html=1;" parent="1" vertex="1">
          <mxGeometry x="1060" y="432.5" width="90" height="50" as="geometry" />
        </mxCell>
        <mxCell id="YExqCfBzZgoQN-jnLlza-29" value="BODY_TYPE" style="text;html=1;align=center;verticalAlign=middle;whiteSpace=wrap;rounded=0;" parent="1" vertex="1">
          <mxGeometry x="1075" y="442.5" width="60" height="30" as="geometry" />
        </mxCell>
        <mxCell id="YExqCfBzZgoQN-jnLlza-30" value="" style="ellipse;whiteSpace=wrap;html=1;" parent="1" vertex="1">
          <mxGeometry x="830" y="422.5" width="90" height="50" as="geometry" />
        </mxCell>
        <mxCell id="YExqCfBzZgoQN-jnLlza-31" value="FUEL_TYPE" style="text;html=1;align=center;verticalAlign=middle;whiteSpace=wrap;rounded=0;" parent="1" vertex="1">
          <mxGeometry x="845" y="432.5" width="60" height="30" as="geometry" />
        </mxCell>
        <mxCell id="YExqCfBzZgoQN-jnLlza-32" value="" style="ellipse;whiteSpace=wrap;html=1;" parent="1" vertex="1">
          <mxGeometry x="930" y="432.5" width="90" height="50" as="geometry" />
        </mxCell>
        <mxCell id="YExqCfBzZgoQN-jnLlza-33" value="ENGINE_TYPE" style="text;html=1;align=center;verticalAlign=middle;whiteSpace=wrap;rounded=0;" parent="1" vertex="1">
          <mxGeometry x="945" y="442.5" width="60" height="30" as="geometry" />
        </mxCell>
        <mxCell id="YExqCfBzZgoQN-jnLlza-34" value="" style="ellipse;whiteSpace=wrap;html=1;" parent="1" vertex="1">
          <mxGeometry x="830" y="542.5" width="125" height="50" as="geometry" />
        </mxCell>
        <mxCell id="YExqCfBzZgoQN-jnLlza-35" value="ENGINE_CAPACITY" style="text;html=1;align=center;verticalAlign=middle;whiteSpace=wrap;rounded=0;" parent="1" vertex="1">
          <mxGeometry x="860" y="552.5" width="60" height="30" as="geometry" />
        </mxCell>
        <mxCell id="YExqCfBzZgoQN-jnLlza-36" value="" style="ellipse;whiteSpace=wrap;html=1;" parent="1" vertex="1">
          <mxGeometry x="890" y="632.5" width="130" height="50" as="geometry" />
        </mxCell>
        <mxCell id="YExqCfBzZgoQN-jnLlza-37" value="SEATING_CAPACITY" style="text;html=1;align=center;verticalAlign=middle;whiteSpace=wrap;rounded=0;" parent="1" vertex="1">
          <mxGeometry x="925" y="642.5" width="60" height="30" as="geometry" />
        </mxCell>
        <mxCell id="YExqCfBzZgoQN-jnLlza-38" value="" style="endArrow=none;html=1;rounded=0;entryX=0;entryY=0;entryDx=0;entryDy=0;exitX=0.924;exitY=0.797;exitDx=0;exitDy=0;exitPerimeter=0;" parent="1" source="YExqCfBzZgoQN-jnLlza-30" target="YExqCfBzZgoQN-jnLlza-18" edge="1">
          <mxGeometry width="50" height="50" relative="1" as="geometry">
            <mxPoint x="940" y="622.5" as="sourcePoint" />
            <mxPoint x="990" y="572.5" as="targetPoint" />
          </mxGeometry>
        </mxCell>
        <mxCell id="YExqCfBzZgoQN-jnLlza-39" value="" style="endArrow=none;html=1;rounded=0;entryX=0.25;entryY=0;entryDx=0;entryDy=0;exitX=1;exitY=1;exitDx=0;exitDy=0;" parent="1" source="YExqCfBzZgoQN-jnLlza-32" target="YExqCfBzZgoQN-jnLlza-18" edge="1">
          <mxGeometry width="50" height="50" relative="1" as="geometry">
            <mxPoint x="940" y="622.5" as="sourcePoint" />
            <mxPoint x="990" y="572.5" as="targetPoint" />
          </mxGeometry>
        </mxCell>
        <mxCell id="YExqCfBzZgoQN-jnLlza-40" value="" style="endArrow=none;html=1;rounded=0;entryX=0.5;entryY=1;entryDx=0;entryDy=0;exitX=0.546;exitY=0.06;exitDx=0;exitDy=0;exitPerimeter=0;" parent="1" source="YExqCfBzZgoQN-jnLlza-18" target="YExqCfBzZgoQN-jnLlza-28" edge="1">
          <mxGeometry width="50" height="50" relative="1" as="geometry">
            <mxPoint x="940" y="622.5" as="sourcePoint" />
            <mxPoint x="990" y="572.5" as="targetPoint" />
          </mxGeometry>
        </mxCell>
        <mxCell id="YExqCfBzZgoQN-jnLlza-41" value="" style="endArrow=none;html=1;rounded=0;exitX=0.75;exitY=0;exitDx=0;exitDy=0;" parent="1" source="YExqCfBzZgoQN-jnLlza-18" target="YExqCfBzZgoQN-jnLlza-20" edge="1">
          <mxGeometry width="50" height="50" relative="1" as="geometry">
            <mxPoint x="940" y="622.5" as="sourcePoint" />
            <mxPoint x="990" y="572.5" as="targetPoint" />
          </mxGeometry>
        </mxCell>
        <mxCell id="YExqCfBzZgoQN-jnLlza-42" value="" style="endArrow=none;html=1;rounded=0;entryX=1.006;entryY=0.629;entryDx=0;entryDy=0;entryPerimeter=0;exitX=0;exitY=0.5;exitDx=0;exitDy=0;" parent="1" source="YExqCfBzZgoQN-jnLlza-18" target="YExqCfBzZgoQN-jnLlza-34" edge="1">
          <mxGeometry width="50" height="50" relative="1" as="geometry">
            <mxPoint x="940" y="622.5" as="sourcePoint" />
            <mxPoint x="990" y="572.5" as="targetPoint" />
          </mxGeometry>
        </mxCell>
        <mxCell id="YExqCfBzZgoQN-jnLlza-43" value="" style="endArrow=none;html=1;rounded=0;exitX=1;exitY=0;exitDx=0;exitDy=0;entryX=-0.001;entryY=0.917;entryDx=0;entryDy=0;entryPerimeter=0;" parent="1" source="YExqCfBzZgoQN-jnLlza-36" target="YExqCfBzZgoQN-jnLlza-18" edge="1">
          <mxGeometry width="50" height="50" relative="1" as="geometry">
            <mxPoint x="940" y="622.5" as="sourcePoint" />
            <mxPoint x="990" y="572.5" as="targetPoint" />
          </mxGeometry>
        </mxCell>
        <mxCell id="YExqCfBzZgoQN-jnLlza-44" value="" style="endArrow=none;html=1;rounded=0;entryX=-0.005;entryY=0.591;entryDx=0;entryDy=0;entryPerimeter=0;" parent="1" target="YExqCfBzZgoQN-jnLlza-22" edge="1">
          <mxGeometry width="50" height="50" relative="1" as="geometry">
            <mxPoint x="1150" y="562.5" as="sourcePoint" />
            <mxPoint x="990" y="572.5" as="targetPoint" />
          </mxGeometry>
        </mxCell>
        <mxCell id="YExqCfBzZgoQN-jnLlza-45" value="" style="endArrow=none;html=1;rounded=0;entryX=0;entryY=0;entryDx=0;entryDy=0;exitX=1;exitY=0.75;exitDx=0;exitDy=0;" parent="1" source="YExqCfBzZgoQN-jnLlza-18" target="YExqCfBzZgoQN-jnLlza-24" edge="1">
          <mxGeometry width="50" height="50" relative="1" as="geometry">
            <mxPoint x="940" y="622.5" as="sourcePoint" />
            <mxPoint x="990" y="572.5" as="targetPoint" />
          </mxGeometry>
        </mxCell>
        <mxCell id="YExqCfBzZgoQN-jnLlza-46" value="" style="endArrow=none;html=1;rounded=0;exitX=1;exitY=1;exitDx=0;exitDy=0;" parent="1" source="YExqCfBzZgoQN-jnLlza-18" target="YExqCfBzZgoQN-jnLlza-26" edge="1">
          <mxGeometry width="50" height="50" relative="1" as="geometry">
            <mxPoint x="940" y="622.5" as="sourcePoint" />
            <mxPoint x="990" y="572.5" as="targetPoint" />
          </mxGeometry>
        </mxCell>
        <mxCell id="YExqCfBzZgoQN-jnLlza-47" value="" style="rounded=0;whiteSpace=wrap;html=1;" parent="1" vertex="1">
          <mxGeometry x="1035" y="902.5" width="120" height="60" as="geometry" />
        </mxCell>
        <mxCell id="YExqCfBzZgoQN-jnLlza-48" value="CAR PACKAGE" style="text;html=1;align=center;verticalAlign=middle;whiteSpace=wrap;rounded=0;" parent="1" vertex="1">
          <mxGeometry x="1065" y="917.5" width="60" height="30" as="geometry" />
        </mxCell>
        <mxCell id="YExqCfBzZgoQN-jnLlza-49" value="" style="ellipse;whiteSpace=wrap;html=1;" parent="1" vertex="1">
          <mxGeometry x="1180" y="957.5" width="100" height="50" as="geometry" />
        </mxCell>
        <mxCell id="YExqCfBzZgoQN-jnLlza-50" value="PACKAGE_NAME" style="text;html=1;align=center;verticalAlign=middle;whiteSpace=wrap;rounded=0;" parent="1" vertex="1">
          <mxGeometry x="1200" y="967.5" width="60" height="30" as="geometry" />
        </mxCell>
        <mxCell id="YExqCfBzZgoQN-jnLlza-51" value="" style="ellipse;whiteSpace=wrap;html=1;" parent="1" vertex="1">
          <mxGeometry x="860" y="877.5" width="125" height="50" as="geometry" />
        </mxCell>
        <mxCell id="YExqCfBzZgoQN-jnLlza-52" value="FEATURES" style="text;html=1;align=center;verticalAlign=middle;whiteSpace=wrap;rounded=0;" parent="1" vertex="1">
          <mxGeometry x="890" y="887.5" width="60" height="30" as="geometry" />
        </mxCell>
        <mxCell id="YExqCfBzZgoQN-jnLlza-53" value="" style="ellipse;whiteSpace=wrap;html=1;" parent="1" vertex="1">
          <mxGeometry x="855" y="962.5" width="130" height="50" as="geometry" />
        </mxCell>
        <mxCell id="YExqCfBzZgoQN-jnLlza-54" value="PRICE_RANGE" style="text;html=1;align=center;verticalAlign=middle;whiteSpace=wrap;rounded=0;" parent="1" vertex="1">
          <mxGeometry x="890" y="972.5" width="60" height="30" as="geometry" />
        </mxCell>
        <mxCell id="YExqCfBzZgoQN-jnLlza-55" value="" style="endArrow=none;html=1;rounded=0;entryX=1.006;entryY=0.629;entryDx=0;entryDy=0;entryPerimeter=0;exitX=0;exitY=0.5;exitDx=0;exitDy=0;" parent="1" source="YExqCfBzZgoQN-jnLlza-47" target="YExqCfBzZgoQN-jnLlza-51" edge="1">
          <mxGeometry width="50" height="50" relative="1" as="geometry">
            <mxPoint x="945" y="972.5" as="sourcePoint" />
            <mxPoint x="995" y="922.5" as="targetPoint" />
          </mxGeometry>
        </mxCell>
        <mxCell id="YExqCfBzZgoQN-jnLlza-56" value="" style="endArrow=none;html=1;rounded=0;exitX=1;exitY=0;exitDx=0;exitDy=0;entryX=-0.025;entryY=0.945;entryDx=0;entryDy=0;entryPerimeter=0;" parent="1" source="YExqCfBzZgoQN-jnLlza-53" target="YExqCfBzZgoQN-jnLlza-47" edge="1">
          <mxGeometry width="50" height="50" relative="1" as="geometry">
            <mxPoint x="945" y="972.5" as="sourcePoint" />
            <mxPoint x="995" y="922.5" as="targetPoint" />
          </mxGeometry>
        </mxCell>
        <mxCell id="YExqCfBzZgoQN-jnLlza-57" value="" style="endArrow=none;html=1;rounded=0;entryX=0;entryY=0;entryDx=0;entryDy=0;exitX=1;exitY=0.75;exitDx=0;exitDy=0;" parent="1" source="YExqCfBzZgoQN-jnLlza-47" target="YExqCfBzZgoQN-jnLlza-49" edge="1">
          <mxGeometry width="50" height="50" relative="1" as="geometry">
            <mxPoint x="945" y="972.5" as="sourcePoint" />
            <mxPoint x="995" y="922.5" as="targetPoint" />
          </mxGeometry>
        </mxCell>
        <mxCell id="YExqCfBzZgoQN-jnLlza-58" value="" style="rounded=0;whiteSpace=wrap;html=1;" parent="1" vertex="1">
          <mxGeometry x="1648" y="572.5" width="120" height="60" as="geometry" />
        </mxCell>
        <mxCell id="YExqCfBzZgoQN-jnLlza-59" value="WORKSHOP" style="text;html=1;align=center;verticalAlign=middle;whiteSpace=wrap;rounded=0;" parent="1" vertex="1">
          <mxGeometry x="1678" y="587.5" width="60" height="30" as="geometry" />
        </mxCell>
        <mxCell id="YExqCfBzZgoQN-jnLlza-60" value="" style="ellipse;whiteSpace=wrap;html=1;" parent="1" vertex="1">
          <mxGeometry x="1798" y="452.5" width="90" height="50" as="geometry" />
        </mxCell>
        <mxCell id="YExqCfBzZgoQN-jnLlza-61" value="LOCATION" style="text;html=1;align=center;verticalAlign=middle;whiteSpace=wrap;rounded=0;" parent="1" vertex="1">
          <mxGeometry x="1813" y="462.5" width="60" height="30" as="geometry" />
        </mxCell>
        <mxCell id="YExqCfBzZgoQN-jnLlza-62" value="" style="ellipse;whiteSpace=wrap;html=1;" parent="1" vertex="1">
          <mxGeometry x="1798" y="542.5" width="142" height="50" as="geometry" />
        </mxCell>
        <mxCell id="YExqCfBzZgoQN-jnLlza-63" value="CONTACT_NUMBER" style="text;html=1;align=center;verticalAlign=middle;whiteSpace=wrap;rounded=0;" parent="1" vertex="1">
          <mxGeometry x="1839" y="552.5" width="60" height="30" as="geometry" />
        </mxCell>
        <mxCell id="YExqCfBzZgoQN-jnLlza-64" value="" style="ellipse;whiteSpace=wrap;html=1;" parent="1" vertex="1">
          <mxGeometry x="1678" y="452.5" width="90" height="50" as="geometry" />
        </mxCell>
        <mxCell id="YExqCfBzZgoQN-jnLlza-65" value="NAME" style="text;html=1;align=center;verticalAlign=middle;whiteSpace=wrap;rounded=0;" parent="1" vertex="1">
          <mxGeometry x="1693" y="462.5" width="60" height="30" as="geometry" />
        </mxCell>
        <mxCell id="YExqCfBzZgoQN-jnLlza-66" value="" style="ellipse;whiteSpace=wrap;html=1;" parent="1" vertex="1">
          <mxGeometry x="1540" y="452.5" width="110" height="50" as="geometry" />
        </mxCell>
        <mxCell id="YExqCfBzZgoQN-jnLlza-67" value="&lt;u&gt;WORKSHOP_ID&lt;/u&gt;" style="text;html=1;align=center;verticalAlign=middle;whiteSpace=wrap;rounded=0;" parent="1" vertex="1">
          <mxGeometry x="1563" y="462.5" width="60" height="30" as="geometry" />
        </mxCell>
        <mxCell id="YExqCfBzZgoQN-jnLlza-68" value="" style="endArrow=none;html=1;rounded=0;entryX=0.25;entryY=0;entryDx=0;entryDy=0;exitX=1;exitY=1;exitDx=0;exitDy=0;" parent="1" source="YExqCfBzZgoQN-jnLlza-66" target="YExqCfBzZgoQN-jnLlza-58" edge="1">
          <mxGeometry width="50" height="50" relative="1" as="geometry">
            <mxPoint x="1558" y="642.5" as="sourcePoint" />
            <mxPoint x="1608" y="592.5" as="targetPoint" />
          </mxGeometry>
        </mxCell>
        <mxCell id="YExqCfBzZgoQN-jnLlza-69" value="" style="endArrow=none;html=1;rounded=0;entryX=0.5;entryY=1;entryDx=0;entryDy=0;exitX=0.546;exitY=0.06;exitDx=0;exitDy=0;exitPerimeter=0;" parent="1" source="YExqCfBzZgoQN-jnLlza-58" target="YExqCfBzZgoQN-jnLlza-64" edge="1">
          <mxGeometry width="50" height="50" relative="1" as="geometry">
            <mxPoint x="1558" y="642.5" as="sourcePoint" />
            <mxPoint x="1608" y="592.5" as="targetPoint" />
          </mxGeometry>
        </mxCell>
        <mxCell id="YExqCfBzZgoQN-jnLlza-70" value="" style="endArrow=none;html=1;rounded=0;exitX=0.75;exitY=0;exitDx=0;exitDy=0;" parent="1" source="YExqCfBzZgoQN-jnLlza-58" target="YExqCfBzZgoQN-jnLlza-60" edge="1">
          <mxGeometry width="50" height="50" relative="1" as="geometry">
            <mxPoint x="1558" y="642.5" as="sourcePoint" />
            <mxPoint x="1608" y="592.5" as="targetPoint" />
          </mxGeometry>
        </mxCell>
        <mxCell id="YExqCfBzZgoQN-jnLlza-71" value="" style="endArrow=none;html=1;rounded=0;entryX=-0.005;entryY=0.591;entryDx=0;entryDy=0;entryPerimeter=0;" parent="1" target="YExqCfBzZgoQN-jnLlza-62" edge="1">
          <mxGeometry width="50" height="50" relative="1" as="geometry">
            <mxPoint x="1768" y="582.5" as="sourcePoint" />
            <mxPoint x="1608" y="592.5" as="targetPoint" />
          </mxGeometry>
        </mxCell>
        <mxCell id="YExqCfBzZgoQN-jnLlza-72" value="" style="rounded=0;whiteSpace=wrap;html=1;" parent="1" vertex="1">
          <mxGeometry x="1678" y="812.5" width="120" height="60" as="geometry" />
        </mxCell>
        <mxCell id="YExqCfBzZgoQN-jnLlza-73" value="FUEL PUMP" style="text;html=1;align=center;verticalAlign=middle;whiteSpace=wrap;rounded=0;" parent="1" vertex="1">
          <mxGeometry x="1708" y="827.5" width="60" height="30" as="geometry" />
        </mxCell>
        <mxCell id="YExqCfBzZgoQN-jnLlza-74" value="" style="ellipse;whiteSpace=wrap;html=1;" parent="1" vertex="1">
          <mxGeometry x="1828" y="692.5" width="90" height="50" as="geometry" />
        </mxCell>
        <mxCell id="YExqCfBzZgoQN-jnLlza-75" value="LOCATION" style="text;html=1;align=center;verticalAlign=middle;whiteSpace=wrap;rounded=0;" parent="1" vertex="1">
          <mxGeometry x="1843" y="702.5" width="60" height="30" as="geometry" />
        </mxCell>
        <mxCell id="YExqCfBzZgoQN-jnLlza-76" value="" style="ellipse;whiteSpace=wrap;html=1;" parent="1" vertex="1">
          <mxGeometry x="1828" y="782.5" width="142" height="50" as="geometry" />
        </mxCell>
        <mxCell id="YExqCfBzZgoQN-jnLlza-77" value="CONTACT_NUMBER" style="text;html=1;align=center;verticalAlign=middle;whiteSpace=wrap;rounded=0;" parent="1" vertex="1">
          <mxGeometry x="1869" y="792.5" width="60" height="30" as="geometry" />
        </mxCell>
        <mxCell id="YExqCfBzZgoQN-jnLlza-78" value="" style="ellipse;whiteSpace=wrap;html=1;" parent="1" vertex="1">
          <mxGeometry x="1708" y="692.5" width="90" height="50" as="geometry" />
        </mxCell>
        <mxCell id="YExqCfBzZgoQN-jnLlza-79" value="NAME" style="text;html=1;align=center;verticalAlign=middle;whiteSpace=wrap;rounded=0;" parent="1" vertex="1">
          <mxGeometry x="1723" y="702.5" width="60" height="30" as="geometry" />
        </mxCell>
        <mxCell id="YExqCfBzZgoQN-jnLlza-80" value="" style="ellipse;whiteSpace=wrap;html=1;" parent="1" vertex="1">
          <mxGeometry x="1570" y="692.5" width="110" height="50" as="geometry" />
        </mxCell>
        <mxCell id="YExqCfBzZgoQN-jnLlza-81" value="&lt;u&gt;PUMP_ID&lt;/u&gt;" style="text;html=1;align=center;verticalAlign=middle;whiteSpace=wrap;rounded=0;" parent="1" vertex="1">
          <mxGeometry x="1593" y="702.5" width="60" height="30" as="geometry" />
        </mxCell>
        <mxCell id="YExqCfBzZgoQN-jnLlza-82" value="" style="endArrow=none;html=1;rounded=0;entryX=0.25;entryY=0;entryDx=0;entryDy=0;exitX=1;exitY=1;exitDx=0;exitDy=0;" parent="1" source="YExqCfBzZgoQN-jnLlza-80" target="YExqCfBzZgoQN-jnLlza-72" edge="1">
          <mxGeometry width="50" height="50" relative="1" as="geometry">
            <mxPoint x="1588" y="882.5" as="sourcePoint" />
            <mxPoint x="1638" y="832.5" as="targetPoint" />
          </mxGeometry>
        </mxCell>
        <mxCell id="YExqCfBzZgoQN-jnLlza-83" value="" style="endArrow=none;html=1;rounded=0;entryX=0.5;entryY=1;entryDx=0;entryDy=0;exitX=0.546;exitY=0.06;exitDx=0;exitDy=0;exitPerimeter=0;" parent="1" source="YExqCfBzZgoQN-jnLlza-72" target="YExqCfBzZgoQN-jnLlza-78" edge="1">
          <mxGeometry width="50" height="50" relative="1" as="geometry">
            <mxPoint x="1588" y="882.5" as="sourcePoint" />
            <mxPoint x="1638" y="832.5" as="targetPoint" />
          </mxGeometry>
        </mxCell>
        <mxCell id="YExqCfBzZgoQN-jnLlza-84" value="" style="endArrow=none;html=1;rounded=0;exitX=0.75;exitY=0;exitDx=0;exitDy=0;" parent="1" source="YExqCfBzZgoQN-jnLlza-72" target="YExqCfBzZgoQN-jnLlza-74" edge="1">
          <mxGeometry width="50" height="50" relative="1" as="geometry">
            <mxPoint x="1588" y="882.5" as="sourcePoint" />
            <mxPoint x="1638" y="832.5" as="targetPoint" />
          </mxGeometry>
        </mxCell>
        <mxCell id="YExqCfBzZgoQN-jnLlza-85" value="" style="endArrow=none;html=1;rounded=0;entryX=-0.005;entryY=0.591;entryDx=0;entryDy=0;entryPerimeter=0;" parent="1" target="YExqCfBzZgoQN-jnLlza-76" edge="1">
          <mxGeometry width="50" height="50" relative="1" as="geometry">
            <mxPoint x="1798" y="822.5" as="sourcePoint" />
            <mxPoint x="1638" y="832.5" as="targetPoint" />
          </mxGeometry>
        </mxCell>
        <mxCell id="YExqCfBzZgoQN-jnLlza-86" value="" style="ellipse;whiteSpace=wrap;html=1;" parent="1" vertex="1">
          <mxGeometry x="1843" y="857.5" width="120" height="55" as="geometry" />
        </mxCell>
        <mxCell id="YExqCfBzZgoQN-jnLlza-87" value="FUEL_TYPES" style="text;html=1;align=center;verticalAlign=middle;whiteSpace=wrap;rounded=0;" parent="1" vertex="1">
          <mxGeometry x="1873" y="870" width="60" height="30" as="geometry" />
        </mxCell>
        <mxCell id="YExqCfBzZgoQN-jnLlza-88" value="" style="ellipse;whiteSpace=wrap;html=1;fillColor=none;" parent="1" vertex="1">
          <mxGeometry x="1828" y="847.5" width="152" height="75" as="geometry" />
        </mxCell>
        <mxCell id="YExqCfBzZgoQN-jnLlza-89" value="" style="endArrow=none;html=1;rounded=0;entryX=-0.007;entryY=0.45;entryDx=0;entryDy=0;entryPerimeter=0;exitX=0.999;exitY=0.621;exitDx=0;exitDy=0;exitPerimeter=0;" parent="1" source="YExqCfBzZgoQN-jnLlza-72" target="YExqCfBzZgoQN-jnLlza-88" edge="1">
          <mxGeometry width="50" height="50" relative="1" as="geometry">
            <mxPoint x="1610" y="872.5" as="sourcePoint" />
            <mxPoint x="1660" y="822.5" as="targetPoint" />
          </mxGeometry>
        </mxCell>
        <mxCell id="YExqCfBzZgoQN-jnLlza-90" value="" style="rhombus;whiteSpace=wrap;html=1;" parent="1" vertex="1">
          <mxGeometry x="1370" y="507.5" width="100" height="95" as="geometry" />
        </mxCell>
        <mxCell id="YExqCfBzZgoQN-jnLlza-91" value="SERVICED AT" style="text;html=1;align=center;verticalAlign=middle;whiteSpace=wrap;rounded=0;" parent="1" vertex="1">
          <mxGeometry x="1390" y="542.5" width="60" height="30" as="geometry" />
        </mxCell>
        <mxCell id="YExqCfBzZgoQN-jnLlza-92" value="" style="endArrow=none;html=1;rounded=0;entryX=0;entryY=0.5;entryDx=0;entryDy=0;exitX=1.004;exitY=0.345;exitDx=0;exitDy=0;exitPerimeter=0;" parent="1" source="YExqCfBzZgoQN-jnLlza-18" target="YExqCfBzZgoQN-jnLlza-90" edge="1">
          <mxGeometry width="50" height="50" relative="1" as="geometry">
            <mxPoint x="1410" y="712.5" as="sourcePoint" />
            <mxPoint x="1460" y="662.5" as="targetPoint" />
          </mxGeometry>
        </mxCell>
        <mxCell id="YExqCfBzZgoQN-jnLlza-93" value="" style="endArrow=none;html=1;rounded=0;entryX=0;entryY=0.5;entryDx=0;entryDy=0;exitX=1;exitY=0.5;exitDx=0;exitDy=0;" parent="1" source="YExqCfBzZgoQN-jnLlza-90" target="YExqCfBzZgoQN-jnLlza-58" edge="1">
          <mxGeometry width="50" height="50" relative="1" as="geometry">
            <mxPoint x="1410" y="712.5" as="sourcePoint" />
            <mxPoint x="1460" y="662.5" as="targetPoint" />
          </mxGeometry>
        </mxCell>
        <mxCell id="YExqCfBzZgoQN-jnLlza-94" value="" style="rhombus;whiteSpace=wrap;html=1;" parent="1" vertex="1">
          <mxGeometry x="1370" y="662.5" width="100" height="95" as="geometry" />
        </mxCell>
        <mxCell id="YExqCfBzZgoQN-jnLlza-95" value="REFUEL AT" style="text;html=1;align=center;verticalAlign=middle;whiteSpace=wrap;rounded=0;" parent="1" vertex="1">
          <mxGeometry x="1390" y="695" width="60" height="30" as="geometry" />
        </mxCell>
        <mxCell id="YExqCfBzZgoQN-jnLlza-96" value="" style="endArrow=none;html=1;rounded=0;entryX=0;entryY=0.5;entryDx=0;entryDy=0;exitX=1;exitY=0.5;exitDx=0;exitDy=0;" parent="1" source="YExqCfBzZgoQN-jnLlza-94" target="YExqCfBzZgoQN-jnLlza-72" edge="1">
          <mxGeometry width="50" height="50" relative="1" as="geometry">
            <mxPoint x="1410" y="712.5" as="sourcePoint" />
            <mxPoint x="1460" y="662.5" as="targetPoint" />
          </mxGeometry>
        </mxCell>
        <mxCell id="YExqCfBzZgoQN-jnLlza-97" value="" style="endArrow=none;html=1;rounded=0;entryX=0;entryY=0;entryDx=0;entryDy=0;exitX=1.002;exitY=0.653;exitDx=0;exitDy=0;exitPerimeter=0;" parent="1" source="YExqCfBzZgoQN-jnLlza-18" target="YExqCfBzZgoQN-jnLlza-94" edge="1">
          <mxGeometry width="50" height="50" relative="1" as="geometry">
            <mxPoint x="1150" y="582.5" as="sourcePoint" />
            <mxPoint x="1460" y="662.5" as="targetPoint" />
            <Array as="points">
              <mxPoint x="1310" y="622.5" />
            </Array>
          </mxGeometry>
        </mxCell>
        <mxCell id="YExqCfBzZgoQN-jnLlza-98" value="" style="rhombus;whiteSpace=wrap;html=1;" parent="1" vertex="1">
          <mxGeometry x="1020" y="682.5" width="100" height="100" as="geometry" />
        </mxCell>
        <mxCell id="YExqCfBzZgoQN-jnLlza-99" value="HAS PACKAGES" style="text;html=1;align=center;verticalAlign=middle;whiteSpace=wrap;rounded=0;" parent="1" vertex="1">
          <mxGeometry x="1040" y="712.5" width="60" height="30" as="geometry" />
        </mxCell>
        <mxCell id="YExqCfBzZgoQN-jnLlza-100" value="" style="endArrow=none;html=1;rounded=0;entryX=0.456;entryY=0.974;entryDx=0;entryDy=0;exitX=0.436;exitY=0.044;exitDx=0;exitDy=0;exitPerimeter=0;entryPerimeter=0;" parent="1" source="YExqCfBzZgoQN-jnLlza-98" target="YExqCfBzZgoQN-jnLlza-18" edge="1">
          <mxGeometry width="50" height="50" relative="1" as="geometry">
            <mxPoint x="1140" y="782.5" as="sourcePoint" />
            <mxPoint x="1190" y="732.5" as="targetPoint" />
          </mxGeometry>
        </mxCell>
        <mxCell id="YExqCfBzZgoQN-jnLlza-101" value="" style="endArrow=none;html=1;rounded=0;exitX=0.419;exitY=0.93;exitDx=0;exitDy=0;entryX=0.375;entryY=0;entryDx=0;entryDy=0;entryPerimeter=0;exitPerimeter=0;" parent="1" source="YExqCfBzZgoQN-jnLlza-98" target="YExqCfBzZgoQN-jnLlza-47" edge="1">
          <mxGeometry width="50" height="50" relative="1" as="geometry">
            <mxPoint x="1140" y="782.5" as="sourcePoint" />
            <mxPoint x="1190" y="732.5" as="targetPoint" />
          </mxGeometry>
        </mxCell>
        <mxCell id="YExqCfBzZgoQN-jnLlza-102" value="" style="endArrow=none;html=1;rounded=0;entryX=0.5;entryY=1;entryDx=0;entryDy=0;" parent="1" source="YExqCfBzZgoQN-jnLlza-98" target="YExqCfBzZgoQN-jnLlza-18" edge="1">
          <mxGeometry width="50" height="50" relative="1" as="geometry">
            <mxPoint x="1140" y="782.5" as="sourcePoint" />
            <mxPoint x="1190" y="732.5" as="targetPoint" />
          </mxGeometry>
        </mxCell>
        <mxCell id="YExqCfBzZgoQN-jnLlza-103" value="" style="endArrow=none;html=1;rounded=0;exitX=0.457;exitY=0.017;exitDx=0;exitDy=0;exitPerimeter=0;entryX=0.539;entryY=0.947;entryDx=0;entryDy=0;entryPerimeter=0;" parent="1" source="YExqCfBzZgoQN-jnLlza-47" target="YExqCfBzZgoQN-jnLlza-98" edge="1">
          <mxGeometry width="50" height="50" relative="1" as="geometry">
            <mxPoint x="1140" y="782.5" as="sourcePoint" />
            <mxPoint x="1190" y="732.5" as="targetPoint" />
          </mxGeometry>
        </mxCell>
        <mxCell id="YExqCfBzZgoQN-jnLlza-104" style="edgeStyle=orthogonalEdgeStyle;rounded=0;orthogonalLoop=1;jettySize=auto;html=1;exitX=0.5;exitY=1;exitDx=0;exitDy=0;" parent="1" source="YExqCfBzZgoQN-jnLlza-98" target="YExqCfBzZgoQN-jnLlza-98" edge="1">
          <mxGeometry relative="1" as="geometry" />
        </mxCell>
        <mxCell id="YExqCfBzZgoQN-jnLlza-105" value="" style="rounded=0;whiteSpace=wrap;html=1;" parent="1" vertex="1">
          <mxGeometry x="515" y="872.5" width="120" height="60" as="geometry" />
        </mxCell>
        <mxCell id="YExqCfBzZgoQN-jnLlza-106" value="WISHLIST" style="text;html=1;align=center;verticalAlign=middle;whiteSpace=wrap;rounded=0;" parent="1" vertex="1">
          <mxGeometry x="545" y="887.5" width="60" height="30" as="geometry" />
        </mxCell>
        <mxCell id="YExqCfBzZgoQN-jnLlza-107" value="" style="ellipse;whiteSpace=wrap;html=1;" parent="1" vertex="1">
          <mxGeometry x="360" y="860" width="140" height="50" as="geometry" />
        </mxCell>
        <mxCell id="YExqCfBzZgoQN-jnLlza-108" value="&lt;u&gt;WISHLIST_ID&lt;/u&gt;" style="text;html=1;align=center;verticalAlign=middle;whiteSpace=wrap;rounded=0;" parent="1" vertex="1">
          <mxGeometry x="405" y="870" width="60" height="30" as="geometry" />
        </mxCell>
        <mxCell id="YExqCfBzZgoQN-jnLlza-109" value="" style="ellipse;whiteSpace=wrap;html=1;" parent="1" vertex="1">
          <mxGeometry x="350" y="982.5" width="170" height="50" as="geometry" />
        </mxCell>
        <mxCell id="YExqCfBzZgoQN-jnLlza-110" value="DATE_ADDED" style="text;html=1;align=center;verticalAlign=middle;whiteSpace=wrap;rounded=0;" parent="1" vertex="1">
          <mxGeometry x="400" y="992.5" width="60" height="30" as="geometry" />
        </mxCell>
        <mxCell id="YExqCfBzZgoQN-jnLlza-111" value="" style="endArrow=none;html=1;rounded=0;exitX=0;exitY=0.5;exitDx=0;exitDy=0;entryX=1;entryY=1;entryDx=0;entryDy=0;" parent="1" source="YExqCfBzZgoQN-jnLlza-105" target="YExqCfBzZgoQN-jnLlza-107" edge="1">
          <mxGeometry width="50" height="50" relative="1" as="geometry">
            <mxPoint x="868" y="1054.5" as="sourcePoint" />
            <mxPoint x="790" y="997.5" as="targetPoint" />
          </mxGeometry>
        </mxCell>
        <mxCell id="YExqCfBzZgoQN-jnLlza-112" value="" style="endArrow=none;html=1;rounded=0;exitX=0.25;exitY=1;exitDx=0;exitDy=0;" parent="1" source="YExqCfBzZgoQN-jnLlza-105" target="YExqCfBzZgoQN-jnLlza-109" edge="1">
          <mxGeometry width="50" height="50" relative="1" as="geometry">
            <mxPoint x="778" y="1174.5" as="sourcePoint" />
            <mxPoint x="700" y="1117.5" as="targetPoint" />
          </mxGeometry>
        </mxCell>
        <mxCell id="YExqCfBzZgoQN-jnLlza-113" value="" style="rhombus;whiteSpace=wrap;html=1;fillColor=none;" parent="1" vertex="1">
          <mxGeometry x="1030" y="692.5" width="80" height="80" as="geometry" />
        </mxCell>
        <mxCell id="YExqCfBzZgoQN-jnLlza-114" value="" style="rhombus;whiteSpace=wrap;html=1;" parent="1" vertex="1">
          <mxGeometry x="620" y="742.5" width="100" height="90" as="geometry" />
        </mxCell>
        <mxCell id="YExqCfBzZgoQN-jnLlza-115" value="ADD TO" style="text;html=1;align=center;verticalAlign=middle;whiteSpace=wrap;rounded=0;" parent="1" vertex="1">
          <mxGeometry x="640" y="772.5" width="60" height="30" as="geometry" />
        </mxCell>
        <mxCell id="YExqCfBzZgoQN-jnLlza-116" value="" style="endArrow=none;html=1;rounded=0;entryX=0.408;entryY=0.9;entryDx=0;entryDy=0;entryPerimeter=0;exitX=0.928;exitY=-0.035;exitDx=0;exitDy=0;exitPerimeter=0;" parent="1" source="YExqCfBzZgoQN-jnLlza-105" target="YExqCfBzZgoQN-jnLlza-114" edge="1">
          <mxGeometry width="50" height="50" relative="1" as="geometry">
            <mxPoint x="590" y="867.5" as="sourcePoint" />
            <mxPoint x="640" y="817.5" as="targetPoint" />
          </mxGeometry>
        </mxCell>
        <mxCell id="YExqCfBzZgoQN-jnLlza-117" value="" style="endArrow=none;html=1;rounded=0;entryX=0.5;entryY=1;entryDx=0;entryDy=0;exitX=1;exitY=0;exitDx=0;exitDy=0;" parent="1" source="YExqCfBzZgoQN-jnLlza-105" target="YExqCfBzZgoQN-jnLlza-114" edge="1">
          <mxGeometry width="50" height="50" relative="1" as="geometry">
            <mxPoint x="635" y="882.5" as="sourcePoint" />
            <mxPoint x="685" y="832.5" as="targetPoint" />
          </mxGeometry>
        </mxCell>
        <mxCell id="YExqCfBzZgoQN-jnLlza-118" value="" style="endArrow=none;html=1;rounded=0;entryX=1;entryY=1;entryDx=0;entryDy=0;exitX=0.5;exitY=0;exitDx=0;exitDy=0;" parent="1" source="YExqCfBzZgoQN-jnLlza-114" target="YExqCfBzZgoQN-jnLlza-3" edge="1">
          <mxGeometry width="50" height="50" relative="1" as="geometry">
            <mxPoint x="790" y="852.5" as="sourcePoint" />
            <mxPoint x="840" y="802.5" as="targetPoint" />
          </mxGeometry>
        </mxCell>
        <mxCell id="YExqCfBzZgoQN-jnLlza-119" value="" style="rounded=0;whiteSpace=wrap;html=1;" parent="1" vertex="1">
          <mxGeometry x="537.5" y="230" width="120" height="60" as="geometry" />
        </mxCell>
        <mxCell id="YExqCfBzZgoQN-jnLlza-120" value="COMMENT" style="text;html=1;align=center;verticalAlign=middle;whiteSpace=wrap;rounded=0;" parent="1" vertex="1">
          <mxGeometry x="567.5" y="245" width="60" height="30" as="geometry" />
        </mxCell>
        <mxCell id="YExqCfBzZgoQN-jnLlza-121" value="" style="ellipse;whiteSpace=wrap;html=1;" parent="1" vertex="1">
          <mxGeometry x="382.5" y="233.75" width="140" height="50" as="geometry" />
        </mxCell>
        <mxCell id="YExqCfBzZgoQN-jnLlza-122" value="&lt;u&gt;COMMENT_ID&lt;/u&gt;" style="text;html=1;align=center;verticalAlign=middle;whiteSpace=wrap;rounded=0;" parent="1" vertex="1">
          <mxGeometry x="427.5" y="242.5" width="60" height="30" as="geometry" />
        </mxCell>
        <mxCell id="YExqCfBzZgoQN-jnLlza-123" value="" style="ellipse;whiteSpace=wrap;html=1;" parent="1" vertex="1">
          <mxGeometry x="400" y="356.25" width="110" height="50" as="geometry" />
        </mxCell>
        <mxCell id="YExqCfBzZgoQN-jnLlza-124" value="COMMENT_TEXT" style="text;html=1;align=center;verticalAlign=middle;whiteSpace=wrap;rounded=0;" parent="1" vertex="1">
          <mxGeometry x="422.5" y="365" width="60" height="30" as="geometry" />
        </mxCell>
        <mxCell id="YExqCfBzZgoQN-jnLlza-125" value="" style="endArrow=none;html=1;rounded=0;exitX=0;exitY=0.5;exitDx=0;exitDy=0;entryX=0.959;entryY=0.676;entryDx=0;entryDy=0;entryPerimeter=0;" parent="1" source="YExqCfBzZgoQN-jnLlza-119" target="YExqCfBzZgoQN-jnLlza-121" edge="1">
          <mxGeometry width="50" height="50" relative="1" as="geometry">
            <mxPoint x="890.5" y="412" as="sourcePoint" />
            <mxPoint x="502.70955666016016" y="274.919642106586" as="targetPoint" />
          </mxGeometry>
        </mxCell>
        <mxCell id="YExqCfBzZgoQN-jnLlza-126" value="" style="endArrow=none;html=1;rounded=0;exitX=0.25;exitY=1;exitDx=0;exitDy=0;entryX=0.784;entryY=0.112;entryDx=0;entryDy=0;entryPerimeter=0;" parent="1" source="YExqCfBzZgoQN-jnLlza-119" target="YExqCfBzZgoQN-jnLlza-123" edge="1">
          <mxGeometry width="50" height="50" relative="1" as="geometry">
            <mxPoint x="800.5" y="532" as="sourcePoint" />
            <mxPoint x="485.9226938594343" y="356.4390827217853" as="targetPoint" />
          </mxGeometry>
        </mxCell>
        <mxCell id="YExqCfBzZgoQN-jnLlza-127" value="" style="rhombus;whiteSpace=wrap;html=1;" parent="1" vertex="1">
          <mxGeometry x="665" y="362.5" width="100" height="90" as="geometry" />
        </mxCell>
        <mxCell id="YExqCfBzZgoQN-jnLlza-128" value="WRITE ABOUT" style="text;html=1;align=center;verticalAlign=middle;whiteSpace=wrap;rounded=0;" parent="1" vertex="1">
          <mxGeometry x="687.5" y="392.5" width="60" height="30" as="geometry" />
        </mxCell>
        <mxCell id="YExqCfBzZgoQN-jnLlza-129" value="" style="endArrow=none;html=1;rounded=0;entryX=0.466;entryY=0.049;entryDx=0;entryDy=0;entryPerimeter=0;exitX=1.003;exitY=0.349;exitDx=0;exitDy=0;exitPerimeter=0;" parent="1" source="YExqCfBzZgoQN-jnLlza-119" target="YExqCfBzZgoQN-jnLlza-127" edge="1">
          <mxGeometry width="50" height="50" relative="1" as="geometry">
            <mxPoint x="612.5" y="225" as="sourcePoint" />
            <mxPoint x="662.5" y="175" as="targetPoint" />
          </mxGeometry>
        </mxCell>
        <mxCell id="YExqCfBzZgoQN-jnLlza-130" value="" style="endArrow=none;html=1;rounded=0;entryX=0.591;entryY=0.087;entryDx=0;entryDy=0;exitX=1;exitY=0;exitDx=0;exitDy=0;entryPerimeter=0;" parent="1" source="YExqCfBzZgoQN-jnLlza-119" target="YExqCfBzZgoQN-jnLlza-127" edge="1">
          <mxGeometry width="50" height="50" relative="1" as="geometry">
            <mxPoint x="657.5" y="240" as="sourcePoint" />
            <mxPoint x="707.5" y="190" as="targetPoint" />
          </mxGeometry>
        </mxCell>
        <mxCell id="YExqCfBzZgoQN-jnLlza-131" value="" style="endArrow=none;html=1;rounded=0;entryX=0;entryY=0.25;entryDx=0;entryDy=0;exitX=1;exitY=0.5;exitDx=0;exitDy=0;" parent="1" source="YExqCfBzZgoQN-jnLlza-127" target="YExqCfBzZgoQN-jnLlza-18" edge="1">
          <mxGeometry width="50" height="50" relative="1" as="geometry">
            <mxPoint x="730" y="562.5" as="sourcePoint" />
            <mxPoint x="780" y="512.5" as="targetPoint" />
            <Array as="points">
              <mxPoint x="880" y="512.5" />
            </Array>
          </mxGeometry>
        </mxCell>
        <mxCell id="YExqCfBzZgoQN-jnLlza-132" value="" style="endArrow=none;html=1;rounded=0;exitX=0.903;exitY=-0.011;exitDx=0;exitDy=0;exitPerimeter=0;entryX=0.222;entryY=0.733;entryDx=0;entryDy=0;entryPerimeter=0;" parent="1" source="YExqCfBzZgoQN-jnLlza-3" target="YExqCfBzZgoQN-jnLlza-127" edge="1">
          <mxGeometry width="50" height="50" relative="1" as="geometry">
            <mxPoint x="640" y="472.5" as="sourcePoint" />
            <mxPoint x="690" y="422.5" as="targetPoint" />
          </mxGeometry>
        </mxCell>
        <mxCell id="YExqCfBzZgoQN-jnLlza-133" value="" style="rounded=0;whiteSpace=wrap;html=1;" parent="1" vertex="1">
          <mxGeometry x="1550" y="1047.5" width="120" height="60" as="geometry" />
        </mxCell>
        <mxCell id="YExqCfBzZgoQN-jnLlza-134" value="CAR LISTING" style="text;html=1;align=center;verticalAlign=middle;whiteSpace=wrap;rounded=0;" parent="1" vertex="1">
          <mxGeometry x="1580" y="1062.5" width="60" height="30" as="geometry" />
        </mxCell>
        <mxCell id="YExqCfBzZgoQN-jnLlza-135" value="" style="ellipse;whiteSpace=wrap;html=1;" parent="1" vertex="1">
          <mxGeometry x="1700" y="927.5" width="90" height="50" as="geometry" />
        </mxCell>
        <mxCell id="YExqCfBzZgoQN-jnLlza-136" value="&lt;u&gt;SELLER_ID&lt;/u&gt;" style="text;html=1;align=center;verticalAlign=middle;whiteSpace=wrap;rounded=0;" parent="1" vertex="1">
          <mxGeometry x="1715" y="937.5" width="60" height="30" as="geometry" />
        </mxCell>
        <mxCell id="YExqCfBzZgoQN-jnLlza-137" value="" style="ellipse;whiteSpace=wrap;html=1;" parent="1" vertex="1">
          <mxGeometry x="1715" y="997.5" width="90" height="50" as="geometry" />
        </mxCell>
        <mxCell id="YExqCfBzZgoQN-jnLlza-138" value="CONDITION" style="text;html=1;align=center;verticalAlign=middle;whiteSpace=wrap;rounded=0;" parent="1" vertex="1">
          <mxGeometry x="1730" y="1007.5" width="60" height="30" as="geometry" />
        </mxCell>
        <mxCell id="YExqCfBzZgoQN-jnLlza-139" value="" style="ellipse;whiteSpace=wrap;html=1;" parent="1" vertex="1">
          <mxGeometry x="1700" y="1102.5" width="90" height="50" as="geometry" />
        </mxCell>
        <mxCell id="YExqCfBzZgoQN-jnLlza-140" value="MILEAGE" style="text;html=1;align=center;verticalAlign=middle;whiteSpace=wrap;rounded=0;" parent="1" vertex="1">
          <mxGeometry x="1715" y="1112.5" width="60" height="30" as="geometry" />
        </mxCell>
        <mxCell id="YExqCfBzZgoQN-jnLlza-141" value="" style="ellipse;whiteSpace=wrap;html=1;" parent="1" vertex="1">
          <mxGeometry x="1680" y="1187.5" width="150" height="50" as="geometry" />
        </mxCell>
        <mxCell id="YExqCfBzZgoQN-jnLlza-142" value="REGISTRATION_YEAR" style="text;html=1;align=center;verticalAlign=middle;whiteSpace=wrap;rounded=0;" parent="1" vertex="1">
          <mxGeometry x="1715" y="1197.5" width="75" height="30" as="geometry" />
        </mxCell>
        <mxCell id="YExqCfBzZgoQN-jnLlza-143" value="" style="ellipse;whiteSpace=wrap;html=1;" parent="1" vertex="1">
          <mxGeometry x="1568" y="892.5" width="125" height="50" as="geometry" />
        </mxCell>
        <mxCell id="YExqCfBzZgoQN-jnLlza-144" value="STATUS" style="text;html=1;align=center;verticalAlign=middle;whiteSpace=wrap;rounded=0;" parent="1" vertex="1">
          <mxGeometry x="1598" y="902.5" width="60" height="30" as="geometry" />
        </mxCell>
        <mxCell id="YExqCfBzZgoQN-jnLlza-145" value="" style="ellipse;whiteSpace=wrap;html=1;" parent="1" vertex="1">
          <mxGeometry x="1558" y="1152.5" width="130" height="50" as="geometry" />
        </mxCell>
        <mxCell id="YExqCfBzZgoQN-jnLlza-146" value="PRICE" style="text;html=1;align=center;verticalAlign=middle;whiteSpace=wrap;rounded=0;" parent="1" vertex="1">
          <mxGeometry x="1593" y="1162.5" width="60" height="30" as="geometry" />
        </mxCell>
        <mxCell id="YExqCfBzZgoQN-jnLlza-147" value="" style="endArrow=none;html=1;rounded=0;exitX=0.75;exitY=0;exitDx=0;exitDy=0;" parent="1" source="YExqCfBzZgoQN-jnLlza-133" target="YExqCfBzZgoQN-jnLlza-135" edge="1">
          <mxGeometry width="50" height="50" relative="1" as="geometry">
            <mxPoint x="1460" y="1117.5" as="sourcePoint" />
            <mxPoint x="1510" y="1067.5" as="targetPoint" />
          </mxGeometry>
        </mxCell>
        <mxCell id="YExqCfBzZgoQN-jnLlza-148" value="" style="endArrow=none;html=1;rounded=0;entryX=0.5;entryY=1;entryDx=0;entryDy=0;exitX=0.62;exitY=-0.004;exitDx=0;exitDy=0;exitPerimeter=0;" parent="1" source="YExqCfBzZgoQN-jnLlza-133" target="YExqCfBzZgoQN-jnLlza-143" edge="1">
          <mxGeometry width="50" height="50" relative="1" as="geometry">
            <mxPoint x="1460" y="1117.5" as="sourcePoint" />
            <mxPoint x="1510" y="1067.5" as="targetPoint" />
          </mxGeometry>
        </mxCell>
        <mxCell id="YExqCfBzZgoQN-jnLlza-149" value="" style="endArrow=none;html=1;rounded=0;exitX=0.5;exitY=0;exitDx=0;exitDy=0;entryX=0.25;entryY=1;entryDx=0;entryDy=0;" parent="1" source="YExqCfBzZgoQN-jnLlza-145" target="YExqCfBzZgoQN-jnLlza-133" edge="1">
          <mxGeometry width="50" height="50" relative="1" as="geometry">
            <mxPoint x="1460" y="1117.5" as="sourcePoint" />
            <mxPoint x="1550" y="1102.5" as="targetPoint" />
          </mxGeometry>
        </mxCell>
        <mxCell id="YExqCfBzZgoQN-jnLlza-150" value="" style="endArrow=none;html=1;rounded=0;entryX=-0.005;entryY=0.591;entryDx=0;entryDy=0;entryPerimeter=0;" parent="1" target="YExqCfBzZgoQN-jnLlza-137" edge="1">
          <mxGeometry width="50" height="50" relative="1" as="geometry">
            <mxPoint x="1670" y="1057.5" as="sourcePoint" />
            <mxPoint x="1510" y="1067.5" as="targetPoint" />
          </mxGeometry>
        </mxCell>
        <mxCell id="YExqCfBzZgoQN-jnLlza-151" value="" style="endArrow=none;html=1;rounded=0;entryX=0;entryY=0;entryDx=0;entryDy=0;exitX=1;exitY=0.75;exitDx=0;exitDy=0;" parent="1" source="YExqCfBzZgoQN-jnLlza-133" target="YExqCfBzZgoQN-jnLlza-139" edge="1">
          <mxGeometry width="50" height="50" relative="1" as="geometry">
            <mxPoint x="1460" y="1117.5" as="sourcePoint" />
            <mxPoint x="1510" y="1067.5" as="targetPoint" />
          </mxGeometry>
        </mxCell>
        <mxCell id="YExqCfBzZgoQN-jnLlza-152" value="" style="endArrow=none;html=1;rounded=0;exitX=1;exitY=1;exitDx=0;exitDy=0;" parent="1" source="YExqCfBzZgoQN-jnLlza-133" target="YExqCfBzZgoQN-jnLlza-141" edge="1">
          <mxGeometry width="50" height="50" relative="1" as="geometry">
            <mxPoint x="1460" y="1117.5" as="sourcePoint" />
            <mxPoint x="1510" y="1067.5" as="targetPoint" />
          </mxGeometry>
        </mxCell>
        <mxCell id="YExqCfBzZgoQN-jnLlza-153" value="" style="endArrow=none;html=1;rounded=0;exitX=1;exitY=0.5;exitDx=0;exitDy=0;entryX=0.25;entryY=1;entryDx=0;entryDy=0;" parent="1" source="YExqCfBzZgoQN-jnLlza-114" target="YExqCfBzZgoQN-jnLlza-18" edge="1">
          <mxGeometry width="50" height="50" relative="1" as="geometry">
            <mxPoint x="795" y="802.5" as="sourcePoint" />
            <mxPoint x="845" y="752.5" as="targetPoint" />
            <Array as="points">
              <mxPoint x="970" y="762.5" />
            </Array>
          </mxGeometry>
        </mxCell>
        <mxCell id="YExqCfBzZgoQN-jnLlza-154" value="" style="rhombus;whiteSpace=wrap;html=1;" parent="1" vertex="1">
          <mxGeometry x="1340" y="827.5" width="140" height="125" as="geometry" />
        </mxCell>
        <mxCell id="YExqCfBzZgoQN-jnLlza-155" value="AVAILABLE AT" style="text;html=1;align=center;verticalAlign=middle;whiteSpace=wrap;rounded=0;" parent="1" vertex="1">
          <mxGeometry x="1380" y="877.5" width="60" height="30" as="geometry" />
        </mxCell>
        <mxCell id="YExqCfBzZgoQN-jnLlza-156" value="" style="endArrow=none;html=1;rounded=0;entryX=0.718;entryY=1.01;entryDx=0;entryDy=0;entryPerimeter=0;exitX=0;exitY=0;exitDx=0;exitDy=0;" parent="1" source="YExqCfBzZgoQN-jnLlza-154" target="YExqCfBzZgoQN-jnLlza-18" edge="1">
          <mxGeometry width="50" height="50" relative="1" as="geometry">
            <mxPoint x="1190" y="872.5" as="sourcePoint" />
            <mxPoint x="1180" y="812.5" as="targetPoint" />
            <Array as="points">
              <mxPoint x="1150" y="842.5" />
            </Array>
          </mxGeometry>
        </mxCell>
        <mxCell id="YExqCfBzZgoQN-jnLlza-157" value="" style="endArrow=none;html=1;rounded=0;exitX=1;exitY=1;exitDx=0;exitDy=0;entryX=0.5;entryY=0;entryDx=0;entryDy=0;" parent="1" source="YExqCfBzZgoQN-jnLlza-154" target="YExqCfBzZgoQN-jnLlza-133" edge="1">
          <mxGeometry width="50" height="50" relative="1" as="geometry">
            <mxPoint x="1540" y="1002.5" as="sourcePoint" />
            <mxPoint x="1590" y="952.5" as="targetPoint" />
            <Array as="points">
              <mxPoint x="1560" y="962.5" />
            </Array>
          </mxGeometry>
        </mxCell>
        <mxCell id="YExqCfBzZgoQN-jnLlza-158" value="" style="endArrow=none;html=1;rounded=0;entryX=0.719;entryY=0.785;entryDx=0;entryDy=0;entryPerimeter=0;exitX=0.385;exitY=-0.012;exitDx=0;exitDy=0;exitPerimeter=0;" parent="1" source="YExqCfBzZgoQN-jnLlza-133" target="YExqCfBzZgoQN-jnLlza-154" edge="1">
          <mxGeometry width="50" height="50" relative="1" as="geometry">
            <mxPoint x="1600" y="1042.5" as="sourcePoint" />
            <mxPoint x="1470" y="957.5" as="targetPoint" />
            <Array as="points">
              <mxPoint x="1550" y="972.5" />
            </Array>
          </mxGeometry>
        </mxCell>
        <mxCell id="YExqCfBzZgoQN-jnLlza-159" value="" style="rhombus;whiteSpace=wrap;html=1;" parent="1" vertex="1">
          <mxGeometry x="1205" y="1090" width="155" height="160" as="geometry" />
        </mxCell>
        <mxCell id="YExqCfBzZgoQN-jnLlza-161" value="COMPARISON" style="text;html=1;align=center;verticalAlign=middle;whiteSpace=wrap;rounded=0;" parent="1" vertex="1">
          <mxGeometry x="1252.5" y="1157.5" width="60" height="30" as="geometry" />
        </mxCell>
        <mxCell id="YExqCfBzZgoQN-jnLlza-162" value="" style="endArrow=none;html=1;rounded=0;entryX=0;entryY=0;entryDx=0;entryDy=0;exitX=0.5;exitY=0;exitDx=0;exitDy=0;" parent="1" target="YExqCfBzZgoQN-jnLlza-133" edge="1">
          <mxGeometry width="50" height="50" relative="1" as="geometry">
            <mxPoint x="1277.5" y="1095" as="sourcePoint" />
            <mxPoint x="1150" y="1042.5" as="targetPoint" />
            <Array as="points">
              <mxPoint x="1320" y="1042.5" />
            </Array>
          </mxGeometry>
        </mxCell>
        <mxCell id="YExqCfBzZgoQN-jnLlza-163" value="" style="endArrow=none;html=1;rounded=0;entryX=0;entryY=0.75;entryDx=0;entryDy=0;exitX=1;exitY=0.5;exitDx=0;exitDy=0;" parent="1" source="YExqCfBzZgoQN-jnLlza-159" target="YExqCfBzZgoQN-jnLlza-133" edge="1">
          <mxGeometry width="50" height="50" relative="1" as="geometry">
            <mxPoint x="1360" y="1180" as="sourcePoint" />
            <mxPoint x="1470" y="1177.5" as="targetPoint" />
          </mxGeometry>
        </mxCell>
        <mxCell id="YExqCfBzZgoQN-jnLlza-164" value="" style="rhombus;whiteSpace=wrap;html=1;" parent="1" vertex="1">
          <mxGeometry x="747.5" y="572.5" width="80" height="80" as="geometry" />
        </mxCell>
        <mxCell id="YExqCfBzZgoQN-jnLlza-165" value="SEARCH FOR" style="text;html=1;align=center;verticalAlign=middle;whiteSpace=wrap;rounded=0;" parent="1" vertex="1">
          <mxGeometry x="757.5" y="597.5" width="60" height="30" as="geometry" />
        </mxCell>
        <mxCell id="YExqCfBzZgoQN-jnLlza-166" value="" style="endArrow=none;html=1;rounded=0;entryX=0;entryY=0.5;entryDx=0;entryDy=0;exitX=1;exitY=0.5;exitDx=0;exitDy=0;" parent="1" source="YExqCfBzZgoQN-jnLlza-3" target="YExqCfBzZgoQN-jnLlza-164" edge="1">
          <mxGeometry width="50" height="50" relative="1" as="geometry">
            <mxPoint x="680" y="582.5" as="sourcePoint" />
            <mxPoint x="730" y="532.5" as="targetPoint" />
          </mxGeometry>
        </mxCell>
        <mxCell id="YExqCfBzZgoQN-jnLlza-167" value="" style="endArrow=none;html=1;rounded=0;entryX=-0.028;entryY=0.663;entryDx=0;entryDy=0;entryPerimeter=0;exitX=1;exitY=0.5;exitDx=0;exitDy=0;" parent="1" source="YExqCfBzZgoQN-jnLlza-164" target="YExqCfBzZgoQN-jnLlza-18" edge="1">
          <mxGeometry width="50" height="50" relative="1" as="geometry">
            <mxPoint x="890" y="632.5" as="sourcePoint" />
            <mxPoint x="940" y="582.5" as="targetPoint" />
          </mxGeometry>
        </mxCell>
        <mxCell id="YExqCfBzZgoQN-jnLlza-168" value="COMPARED TO" style="text;html=1;align=center;verticalAlign=middle;whiteSpace=wrap;rounded=0;" parent="1" vertex="1">
          <mxGeometry x="1350" y="1022.5" width="100" height="30" as="geometry" />
        </mxCell>
        <mxCell id="YExqCfBzZgoQN-jnLlza-169" value="COMPARED WITH" style="text;html=1;align=center;verticalAlign=middle;whiteSpace=wrap;rounded=0;rotation=-30;" parent="1" vertex="1">
          <mxGeometry x="1380" y="1152.5" width="110" height="30" as="geometry" />
        </mxCell>
        <mxCell id="YExqCfBzZgoQN-jnLlza-170" value="" style="endArrow=none;html=1;rounded=0;exitX=0.992;exitY=0.401;exitDx=0;exitDy=0;exitPerimeter=0;" parent="1" source="YExqCfBzZgoQN-jnLlza-18" target="YExqCfBzZgoQN-jnLlza-90" edge="1">
          <mxGeometry width="50" height="50" relative="1" as="geometry">
            <mxPoint x="1450" y="642.5" as="sourcePoint" />
            <mxPoint x="1500" y="592.5" as="targetPoint" />
          </mxGeometry>
        </mxCell>
        <mxCell id="YExqCfBzZgoQN-jnLlza-171" value="" style="endArrow=none;html=1;rounded=0;entryX=-0.017;entryY=0.603;entryDx=0;entryDy=0;entryPerimeter=0;exitX=0.972;exitY=0.542;exitDx=0;exitDy=0;exitPerimeter=0;" parent="1" source="YExqCfBzZgoQN-jnLlza-90" target="YExqCfBzZgoQN-jnLlza-58" edge="1">
          <mxGeometry width="50" height="50" relative="1" as="geometry">
            <mxPoint x="1470" y="652.5" as="sourcePoint" />
            <mxPoint x="1520" y="602.5" as="targetPoint" />
          </mxGeometry>
        </mxCell>
        <mxCell id="YExqCfBzZgoQN-jnLlza-172" value="N" style="text;html=1;align=center;verticalAlign=middle;whiteSpace=wrap;rounded=0;" parent="1" vertex="1">
          <mxGeometry x="1330" y="527.5" width="60" height="30" as="geometry" />
        </mxCell>
        <mxCell id="YExqCfBzZgoQN-jnLlza-173" value="M" style="text;html=1;align=center;verticalAlign=middle;whiteSpace=wrap;rounded=0;" parent="1" vertex="1">
          <mxGeometry x="1445" y="527.5" width="60" height="30" as="geometry" />
        </mxCell>
        <mxCell id="YExqCfBzZgoQN-jnLlza-174" value="" style="endArrow=none;html=1;rounded=0;exitX=0.992;exitY=0.582;exitDx=0;exitDy=0;exitPerimeter=0;" parent="1" source="YExqCfBzZgoQN-jnLlza-18" edge="1">
          <mxGeometry width="50" height="50" relative="1" as="geometry">
            <mxPoint x="1200" y="582.5" as="sourcePoint" />
            <mxPoint x="1400" y="682.5" as="targetPoint" />
            <Array as="points">
              <mxPoint x="1310" y="612.5" />
            </Array>
          </mxGeometry>
        </mxCell>
        <mxCell id="YExqCfBzZgoQN-jnLlza-175" value="" style="endArrow=none;html=1;rounded=0;entryX=0.942;entryY=0.556;entryDx=0;entryDy=0;entryPerimeter=0;exitX=0.006;exitY=0.592;exitDx=0;exitDy=0;exitPerimeter=0;" parent="1" source="YExqCfBzZgoQN-jnLlza-72" target="YExqCfBzZgoQN-jnLlza-94" edge="1">
          <mxGeometry width="50" height="50" relative="1" as="geometry">
            <mxPoint x="1480" y="822.5" as="sourcePoint" />
            <mxPoint x="1530" y="772.5" as="targetPoint" />
          </mxGeometry>
        </mxCell>
        <mxCell id="YExqCfBzZgoQN-jnLlza-176" value="N" style="text;html=1;align=center;verticalAlign=middle;whiteSpace=wrap;rounded=0;" parent="1" vertex="1">
          <mxGeometry x="1360" y="652.5" width="60" height="30" as="geometry" />
        </mxCell>
        <mxCell id="YExqCfBzZgoQN-jnLlza-177" value="M" style="text;html=1;align=center;verticalAlign=middle;whiteSpace=wrap;rounded=0;" parent="1" vertex="1">
          <mxGeometry x="1440" y="712.5" width="60" height="30" as="geometry" />
        </mxCell>
        <mxCell id="YExqCfBzZgoQN-jnLlza-178" value="1" style="text;html=1;align=center;verticalAlign=middle;whiteSpace=wrap;rounded=0;" parent="1" vertex="1">
          <mxGeometry x="640" y="422.5" width="60" height="30" as="geometry" />
        </mxCell>
        <mxCell id="YExqCfBzZgoQN-jnLlza-179" value="N" style="text;html=1;align=center;verticalAlign=middle;whiteSpace=wrap;rounded=0;" parent="1" vertex="1">
          <mxGeometry x="700" y="352.5" width="60" height="30" as="geometry" />
        </mxCell>
        <mxCell id="YExqCfBzZgoQN-jnLlza-180" value="M" style="text;html=1;align=center;verticalAlign=middle;whiteSpace=wrap;rounded=0;" parent="1" vertex="1">
          <mxGeometry x="740" y="406.25" width="60" height="30" as="geometry" />
        </mxCell>
        <mxCell id="YExqCfBzZgoQN-jnLlza-181" value="1" style="text;html=1;align=center;verticalAlign=middle;whiteSpace=wrap;rounded=0;" parent="1" vertex="1">
          <mxGeometry x="710" y="587.5" width="60" height="30" as="geometry" />
        </mxCell>
        <mxCell id="YExqCfBzZgoQN-jnLlza-182" value="N" style="text;html=1;align=center;verticalAlign=middle;whiteSpace=wrap;rounded=0;" parent="1" vertex="1">
          <mxGeometry x="805" y="607.5" width="60" height="30" as="geometry" />
        </mxCell>
        <mxCell id="YExqCfBzZgoQN-jnLlza-183" value="1" style="text;html=1;align=center;verticalAlign=middle;whiteSpace=wrap;rounded=0;" parent="1" vertex="1">
          <mxGeometry x="650" y="722.5" width="60" height="30" as="geometry" />
        </mxCell>
        <mxCell id="YExqCfBzZgoQN-jnLlza-184" value="N" style="text;html=1;align=center;verticalAlign=middle;whiteSpace=wrap;rounded=0;" parent="1" vertex="1">
          <mxGeometry x="610" y="807.5" width="60" height="30" as="geometry" />
        </mxCell>
        <mxCell id="YExqCfBzZgoQN-jnLlza-185" value="N" style="text;html=1;align=center;verticalAlign=middle;whiteSpace=wrap;rounded=0;" parent="1" vertex="1">
          <mxGeometry x="697.5" y="787.5" width="60" height="30" as="geometry" />
        </mxCell>
        <mxCell id="YExqCfBzZgoQN-jnLlza-186" value="1" style="text;html=1;align=center;verticalAlign=middle;whiteSpace=wrap;rounded=0;" parent="1" vertex="1">
          <mxGeometry x="1060" y="672.5" width="60" height="30" as="geometry" />
        </mxCell>
        <mxCell id="YExqCfBzZgoQN-jnLlza-187" value="N" style="text;html=1;align=center;verticalAlign=middle;whiteSpace=wrap;rounded=0;" parent="1" vertex="1">
          <mxGeometry x="1020" y="767.5" width="60" height="30" as="geometry" />
        </mxCell>
        <mxCell id="YExqCfBzZgoQN-jnLlza-188" value="N" style="text;html=1;align=center;verticalAlign=middle;whiteSpace=wrap;rounded=0;" parent="1" vertex="1">
          <mxGeometry x="1340" y="832.5" width="60" height="30" as="geometry" />
        </mxCell>
        <mxCell id="YExqCfBzZgoQN-jnLlza-189" value="M" style="text;html=1;align=center;verticalAlign=middle;whiteSpace=wrap;rounded=0;" parent="1" vertex="1">
          <mxGeometry x="1440" y="902.5" width="60" height="30" as="geometry" />
        </mxCell>
        <mxCell id="YExqCfBzZgoQN-jnLlza-190" value="" style="rounded=0;whiteSpace=wrap;html=1;fillColor=none;" parent="1" vertex="1">
          <mxGeometry x="1045" y="911.25" width="100" height="42.5" as="geometry" />
        </mxCell>
        <mxCell id="KfUkXyVgIjZABcmgW62a-1" value="1" style="text;html=1;align=center;verticalAlign=middle;whiteSpace=wrap;rounded=0;" parent="1" vertex="1">
          <mxGeometry x="1250" y="1060" width="60" height="30" as="geometry" />
        </mxCell>
        <mxCell id="KfUkXyVgIjZABcmgW62a-2" value="1" style="text;html=1;align=center;verticalAlign=middle;whiteSpace=wrap;rounded=0;" parent="1" vertex="1">
          <mxGeometry x="1340" y="1167.5" width="60" height="30" as="geometry" />
        </mxCell>
      </root>
    </mxGraphModel>
  </diagram>
</mxfile>
